# xmcd
#
# Track frame offsets:
#	150
#	10837
#	19312
#	29703
#	38480
#	48289
#	56347
#	64878
#	77413
#	87939
#	101643
#	104354
#
# Disc length: 1496 seconds
#
# Revision: 0
# Processed by: cddbd v1.4PL0 Copyright (c) Steve Scherf et al.
# Submitted via: dBpowerAMP V4.0
#
DISCID=8e05d60c
DTITLE=Sidney Castel - Live at the Beaver Lodge
DYEAR=2003
DGENRE=Country
TTITLE0=Bannock Without Beans
TTITLE1=Walking In The Sunshine
TTITLE2=Your Cheating Heart
TTITLE3=Winnipeg City
TTITLE4=He'll Have To Go
TTITLE5=The Cree Song
TTITLE6=I'm Just A Lonely Boy
TTITLE7=You Are My Sunshine
TTITLE8=The Thompson Song
TTITLE9=Green Green Grass Of Home
TTITLE10=The End
TTITLE11=The Pukatawagan Song
EXTD=
EXTT0=
EXTT1=
EXTT2=
EXTT3=
EXTT4=
EXTT5=
EXTT6=
EXTT7=
EXTT8=
EXTT9=
EXTT10=
EXTT11=
PLAYORDER=
